<svg version="1.1" id="Layer_1" xmlns="http://www.w3.org/2000/svg" xmlns:xlink="http://www.w3.org/1999/xlink" x="0px" y="0px"
	 width="100%" viewBox="0 0 468 436" enable-background="new 0 0 468 436" xml:space="preserve">
<path fill="#010101" opacity="1.000000" stroke="none" 
	d="
M273.000000,437.000000 
	C182.025009,437.000000 91.550018,437.000000 1.037511,437.000000 
	C1.037511,291.731842 1.037511,146.463669 1.037511,1.097751 
	C156.891663,1.097751 312.783417,1.097751 468.837585,1.097751 
	C468.837585,146.333191 468.837585,291.666565 468.837585,437.000000 
	C403.796967,437.000000 338.648468,437.000000 273.000000,437.000000 
M183.147156,404.350525 
	C191.637405,409.274231 200.126266,414.200287 208.618225,419.121033 
	C221.109055,426.358948 234.572144,429.055847 248.352249,424.744171 
	C256.781677,422.106689 264.710083,417.510132 272.441895,413.060791 
	C312.800262,389.836304 353.063629,366.445740 393.275909,342.968842 
	C411.850830,332.124329 421.499237,316.364044 421.312042,294.198090 
	C420.871490,242.036011 421.254852,189.867477 421.103210,137.702148 
	C421.049530,119.236816 412.698700,104.662697 397.062531,95.398849 
	C352.422424,68.951210 307.438690,43.082138 262.521759,17.103746 
	C244.646545,6.765350 226.483917,6.583456 208.549530,16.952570 
	C163.609451,42.935539 118.601860,68.807732 73.935410,95.254776 
	C58.159504,104.595695 49.605804,119.049896 49.608639,137.894333 
	C49.616508,190.226761 49.847084,242.560638 49.515457,294.890930 
	C49.377731,316.623901 58.880768,332.148224 77.215958,342.823944 
	C112.292694,363.247467 147.412201,383.597565 183.147156,404.350525 
z"/>
<path fill="#FDFDFD" opacity="1.000000" stroke="none" 
	d="
M182.830566,404.164307 
	C147.412201,383.597565 112.292694,363.247467 77.215958,342.823944 
	C58.880768,332.148224 49.377731,316.623901 49.515457,294.890930 
	C49.847084,242.560638 49.616508,190.226761 49.608639,137.894333 
	C49.605804,119.049896 58.159504,104.595695 73.935410,95.254776 
	C118.601860,68.807732 163.609451,42.935539 208.549530,16.952570 
	C226.483917,6.583456 244.646545,6.765350 262.521759,17.103746 
	C307.438690,43.082138 352.422424,68.951210 397.062531,95.398849 
	C412.698700,104.662697 421.049530,119.236816 421.103210,137.702148 
	C421.254852,189.867477 420.871490,242.036011 421.312042,294.198090 
	C421.499237,316.364044 411.850830,332.124329 393.275909,342.968842 
	C353.063629,366.445740 312.800262,389.836304 272.441895,413.060791 
	C264.710083,417.510132 256.781677,422.106689 248.352249,424.744171 
	C234.572144,429.055847 221.109055,426.358948 208.618225,419.121033 
	C200.126266,414.200287 191.637405,409.274231 182.830566,404.164307 
M344.290344,110.187141 
	C313.653839,92.377884 282.896484,74.771858 252.442200,56.656269 
	C240.762833,49.708855 229.894760,49.282246 218.397766,56.644730 
	C210.282181,61.841824 201.750916,66.389130 193.412949,71.239769 
	C163.367172,88.718948 133.330399,106.213593 103.277390,123.680290 
	C94.528488,128.765121 88.600494,135.651627 88.595680,146.355194 
	C88.574303,193.853348 88.584648,241.351501 88.552101,288.849640 
	C88.545158,298.984161 93.240181,306.470581 101.735970,311.434540 
	C141.654541,334.758453 181.650024,357.950806 221.637039,381.157379 
	C230.557083,386.334167 239.727325,386.533173 248.634415,381.383362 
	C288.822601,358.147736 328.977051,334.852783 369.036835,311.396790 
	C377.660645,306.347351 382.237640,298.662872 382.215179,288.272675 
	C382.114166,241.607315 382.113434,194.941406 382.244110,148.276169 
	C382.274841,137.305420 377.438568,129.516449 368.213165,124.119881 
	C360.458405,119.583595 352.674896,115.096397 344.290344,110.187141 
z"/>
<path fill="#020202" opacity="1.000000" stroke="none" 
	d="
M344.597229,110.387306 
	C352.674896,115.096397 360.458405,119.583595 368.213165,124.119881 
	C377.438568,129.516449 382.274841,137.305420 382.244110,148.276169 
	C382.113434,194.941406 382.114166,241.607315 382.215179,288.272675 
	C382.237640,298.662872 377.660645,306.347351 369.036835,311.396790 
	C328.977051,334.852783 288.822601,358.147736 248.634415,381.383362 
	C239.727325,386.533173 230.557083,386.334167 221.637039,381.157379 
	C181.650024,357.950806 141.654541,334.758453 101.735970,311.434540 
	C93.240181,306.470581 88.545158,298.984161 88.552101,288.849640 
	C88.584648,241.351501 88.574303,193.853348 88.595680,146.355194 
	C88.600494,135.651627 94.528488,128.765121 103.277390,123.680290 
	C133.330399,106.213593 163.367172,88.718948 193.412949,71.239769 
	C201.750916,66.389130 210.282181,61.841824 218.397766,56.644730 
	C229.894760,49.282246 240.762833,49.708855 252.442200,56.656269 
	C282.896484,74.771858 313.653839,92.377884 344.597229,110.387306 
M167.381699,263.105255 
	C163.381561,259.249573 162.156296,254.416901 162.170822,249.027451 
	C162.225632,228.695694 162.379471,208.361176 162.106354,188.032928 
	C161.988251,179.243332 165.394562,173.238510 173.037079,168.927383 
	C189.982544,159.368500 206.842865,149.645966 223.509262,139.610443 
	C231.711823,134.671341 239.236679,134.833359 247.333084,139.678818 
	C262.461945,148.733017 277.757080,157.512878 293.093323,166.212448 
	C294.848602,167.208160 297.788544,167.928757 299.365417,167.143280 
	C313.936951,159.884857 328.329468,152.267029 343.030823,144.620102 
	C342.130310,143.928741 341.539612,143.363525 340.852600,142.963821 
	C308.653961,124.231110 276.460236,105.489883 244.228928,86.813492 
	C238.285797,83.369751 232.226349,83.473244 226.247330,86.949661 
	C193.166092,106.184280 160.068008,125.389992 127.005219,144.656281 
	C121.398056,147.923691 118.600273,152.756012 118.619530,159.474716 
	C118.730843,198.304886 118.766563,237.135864 118.614326,275.965729 
	C118.584648,283.533264 121.860497,288.474945 128.183868,292.134430 
	C160.004227,310.549683 191.855453,328.915192 223.486740,347.651154 
	C231.715210,352.525055 238.895782,352.704102 247.148605,347.752930 
	C269.109589,334.577820 291.373962,321.908478 313.516327,309.035675 
	C323.268646,303.365997 333.017639,297.690613 343.337677,291.686493 
	C328.822784,284.072510 314.874969,276.864746 301.054077,269.421387 
	C298.003632,267.778534 295.731995,268.024750 292.822357,269.750458 
	C277.509064,278.832703 262.169952,287.883789 246.594772,296.502930 
	C242.862549,298.568298 238.242493,299.203278 233.937424,299.976349 
	C232.144180,300.298370 229.846268,299.711884 228.219955,298.772797 
	C208.066299,287.135406 187.994263,275.356689 167.381699,263.105255 
z"/>
<path fill="#FDFDFD" opacity="1.000000" stroke="none" 
	d="
M167.641449,263.359802 
	C187.994263,275.356689 208.066299,287.135406 228.219955,298.772797 
	C229.846268,299.711884 232.144180,300.298370 233.937424,299.976349 
	C238.242493,299.203278 242.862549,298.568298 246.594772,296.502930 
	C262.169952,287.883789 277.509064,278.832703 292.822357,269.750458 
	C295.731995,268.024750 298.003632,267.778534 301.054077,269.421387 
	C314.874969,276.864746 328.822784,284.072510 343.337677,291.686493 
	C333.017639,297.690613 323.268646,303.365997 313.516327,309.035675 
	C291.373962,321.908478 269.109589,334.577820 247.148605,347.752930 
	C238.895782,352.704102 231.715210,352.525055 223.486740,347.651154 
	C191.855453,328.915192 160.004227,310.549683 128.183868,292.134430 
	C121.860497,288.474945 118.584648,283.533264 118.614326,275.965729 
	C118.766563,237.135864 118.730843,198.304886 118.619530,159.474716 
	C118.600273,152.756012 121.398056,147.923691 127.005219,144.656281 
	C160.068008,125.389992 193.166092,106.184280 226.247330,86.949661 
	C232.226349,83.473244 238.285797,83.369751 244.228928,86.813492 
	C276.460236,105.489883 308.653961,124.231110 340.852600,142.963821 
	C341.539612,143.363525 342.130310,143.928741 343.030823,144.620102 
	C328.329468,152.267029 313.936951,159.884857 299.365417,167.143280 
	C297.788544,167.928757 294.848602,167.208160 293.093323,166.212448 
	C277.757080,157.512878 262.461945,148.733017 247.333084,139.678818 
	C239.236679,134.833359 231.711823,134.671341 223.509262,139.610443 
	C206.842865,149.645966 189.982544,159.368500 173.037079,168.927383 
	C165.394562,173.238510 161.988251,179.243332 162.106354,188.032928 
	C162.379471,208.361176 162.225632,228.695694 162.170822,249.027451 
	C162.156296,254.416901 163.381561,259.249573 167.641449,263.359802 
z"/>
</svg>