<svg version="1.1" id="Layer_1" xmlns="http://www.w3.org/2000/svg" xmlns:xlink="http://www.w3.org/1999/xlink" x="0px" y="0px"
	 width="100%" viewBox="0 0 500 262" enable-background="new 0 0 500 262" xml:space="preserve">
<path fill="#1C1C1C" opacity="1.000000" stroke="none" 
	d="
M501.000000,2.000000 
	C501.000000,88.354225 501.000000,174.708450 500.538177,261.561768 
	C334.716064,262.064056 169.355774,262.067413 3.995479,262.067657 
	C2.996985,262.067657 1.998492,262.023529 1.000000,262.000000 
	C1.000000,175.645767 1.000000,89.291542 1.461974,2.441465 
	C143.970413,1.942899 286.016876,1.937198 428.063354,1.940338 
	C452.375580,1.940876 476.687775,1.979156 501.000000,2.000000 
M497.948425,238.499847 
	C497.948425,160.588425 497.948425,82.676994 497.948425,4.744768 
	C333.064087,4.744768 168.801315,4.744768 4.295118,4.744768 
	C4.295118,89.609093 4.295118,174.340805 4.295118,259.147949 
	C168.869110,259.147949 333.229431,259.147949 497.948425,259.147949 
	C497.948425,252.442200 497.948425,245.970932 497.948425,238.499847 
z"/>
<path fill="#DFDFDF" opacity="1.000000" stroke="none" 
	d="
M501.000000,1.500000 
	C476.687775,1.979156 452.375580,1.940876 428.063354,1.940338 
	C286.016876,1.937198 143.970413,1.942899 1.461974,1.972807 
	C2.333333,1.666667 3.665965,1.045924 5.000104,1.042664 
	C28.999962,0.984023 53.000000,1.000000 77.000000,1.000000 
	C218.333328,1.000000 359.666656,1.000000 501.000000,1.500000 
z"/>
<path fill="#BFBFBF" opacity="1.000000" stroke="none" 
	d="
M1.000000,262.500000 
	C1.998492,262.023529 2.996985,262.067657 3.995479,262.067657 
	C169.355774,262.067413 334.716064,262.064056 500.538177,262.030396 
	C499.666656,262.333344 498.334045,262.954071 496.999908,262.957306 
	C473.000031,263.015961 449.000000,263.000000 425.000000,263.000000 
	C283.666656,263.000000 142.333328,263.000000 1.000000,262.500000 
z"/>
<path fill="#FEFEFE" opacity="1.000000" stroke="none" 
	d="
M497.948425,238.999756 
	C497.948425,245.970932 497.948425,252.442200 497.948425,259.147949 
	C333.229431,259.147949 168.869110,259.147949 4.295118,259.147949 
	C4.295118,174.340805 4.295118,89.609093 4.295118,4.744768 
	C168.801315,4.744768 333.064087,4.744768 497.948425,4.744768 
	C497.948425,82.676994 497.948425,160.588425 497.948425,238.999756 
M227.492310,10.997183 
	C155.250824,10.997183 83.009338,10.997183 10.876190,10.997183 
	C10.876190,91.967957 10.876190,172.244751 10.876190,252.668640 
	C87.649773,252.668640 164.204041,252.668640 240.724487,252.668640 
	C240.724487,171.993195 240.724487,91.599319 240.724487,10.997183 
	C236.448914,10.997183 232.469131,10.997183 227.492310,10.997183 
M357.683929,53.985516 
	C358.364868,53.402607 359.045776,52.819702 359.855591,52.126472 
	C359.855591,99.427444 359.855591,146.285385 359.855591,193.210144 
	C372.681396,193.210144 385.250519,193.210144 397.735748,193.210144 
	C397.735748,132.201126 397.735748,71.496193 397.735748,10.486331 
	C388.275696,10.486331 379.130157,10.327125 369.997437,10.599305 
	C367.740295,10.666575 365.145081,11.646175 363.351898,13.038897 
	C351.653748,22.124409 340.133331,31.438759 328.555420,40.679066 
	C321.578461,46.247318 314.602661,51.816978 307.445282,57.530525 
	C313.869659,65.506287 319.960938,73.068535 326.374908,81.031380 
	C336.988922,71.871490 347.060303,63.179905 357.683929,53.985516 
M407.585785,221.958740 
	C410.810089,231.998322 414.034363,242.037903 417.149689,251.738144 
	C422.255554,251.738144 426.691376,251.738144 431.202118,251.738144 
	C434.050018,243.190826 436.827057,234.856247 440.016449,225.284027 
	C441.955170,231.083923 443.446869,235.449890 444.874756,239.836655 
	C448.934570,252.308899 448.924377,252.314072 461.793823,251.964798 
	C462.108856,251.956253 462.419525,251.786530 462.891205,251.643906 
	C467.972504,235.813477 473.081421,219.897079 478.405396,203.310715 
	C473.850952,203.310715 469.898956,203.092087 465.999146,203.446777 
	C464.860596,203.550339 463.325134,205.097015 462.902008,206.307465 
	C460.329712,213.666016 458.026215,221.118500 455.317657,229.517471 
	C453.103729,222.937103 451.136444,217.178864 449.229584,211.400635 
	C446.555267,203.296753 446.567505,203.496429 438.316254,203.215225 
	C434.556976,203.087112 432.759369,204.060242 431.725525,207.903030 
	C429.891968,214.718170 427.344971,221.341370 424.717194,229.175583 
	C422.060364,220.876602 419.881897,213.793625 417.471802,206.790359 
	C417.017487,205.470306 415.722656,203.572464 414.674805,203.476334 
	C410.505432,203.093765 406.280365,203.318756 401.618683,203.318756 
	C403.681976,209.881165 405.467072,215.558792 407.585785,221.958740 
M318.622009,252.006607 
	C321.726990,252.006607 324.831970,252.006607 328.206482,252.006607 
	C328.206482,247.133133 328.206482,242.841934 328.206482,238.633453 
	C331.927460,237.255157 334.012421,238.371796 335.311157,241.848694 
	C336.350739,244.631714 337.860077,247.255768 339.338531,249.849106 
	C339.836121,250.721924 340.855835,251.857834 341.677917,251.892197 
	C346.360077,252.088028 351.054626,251.987183 356.223816,251.987183 
	C353.020630,246.037796 350.227936,240.850830 347.404724,235.607193 
	C354.719391,230.654678 356.276978,223.922226 354.838989,216.383316 
	C353.687653,210.347382 349.857758,205.564102 343.860718,204.748154 
	C334.105530,203.420837 324.172668,203.399170 314.074768,202.812500 
	C314.074768,219.058533 314.163116,234.047333 314.002075,249.033478 
	C313.968872,252.122772 315.496124,252.192398 318.622009,252.006607 
M270.203430,204.425369 
	C257.957428,210.732712 252.986099,222.461624 256.888336,235.839752 
	C260.302704,247.545166 271.210114,254.274063 284.499420,252.873230 
	C296.165192,251.643539 305.121796,243.403381 306.043793,232.596893 
	C303.891479,232.596893 301.769226,232.685684 299.657043,232.577881 
	C295.635010,232.372543 292.406219,232.757523 289.457428,236.588120 
	C285.565369,241.644104 277.261627,241.111740 273.029694,236.497620 
	C268.435852,231.488922 268.940216,222.266342 274.041687,217.992859 
	C278.866791,213.950897 286.510620,214.753998 290.646393,219.629333 
	C291.624542,220.782425 292.892914,222.360687 294.149200,222.481552 
	C298.026245,222.854507 301.961945,222.617645 306.240845,222.617645 
	C305.923065,221.129456 305.828674,220.322601 305.578064,219.567596 
	C300.939423,205.591492 287.315277,199.520630 270.203430,204.425369 
M395.662903,223.806702 
	C394.423309,223.159164 393.208130,222.015686 391.939697,221.953140 
	C387.353119,221.726944 382.748566,221.864090 378.363617,221.864090 
	C378.363617,219.086700 378.363617,217.012421 378.363617,214.625793 
	C384.802673,214.625793 390.904205,214.625793 397.116211,214.625793 
	C397.116211,210.723938 397.116211,207.155991 397.116211,203.575073 
	C386.011566,203.575073 375.249725,203.575073 364.281921,203.575073 
	C364.281921,219.750259 364.281921,235.658035 364.281921,251.661179 
	C375.682190,251.661179 386.879395,251.661179 397.929016,251.661179 
	C397.929016,247.856567 397.929016,244.401550 397.929016,240.554321 
	C391.275085,240.554321 384.846558,240.554321 378.245422,240.554321 
	C378.245422,237.905945 378.245422,235.658249 378.245422,233.002792 
	C384.042969,233.002792 389.633209,233.002792 395.670227,233.002792 
	C395.670227,229.985962 395.670227,227.358307 395.662903,223.806702 
z"/>
<path fill="#010101" opacity="1.000000" stroke="none" 
	d="
M227.990829,10.997183 
	C232.469131,10.997183 236.448914,10.997183 240.724487,10.997183 
	C240.724487,91.599319 240.724487,171.993195 240.724487,252.668640 
	C164.204041,252.668640 87.649773,252.668640 10.876190,252.668640 
	C10.876190,172.244751 10.876190,91.967957 10.876190,10.997183 
	C83.009338,10.997183 155.250824,10.997183 227.990829,10.997183 
M98.933037,123.434555 
	C124.217041,107.466530 149.501053,91.498497 175.025101,75.378876 
	C164.492676,58.713596 154.114243,42.291981 143.603226,25.660582 
	C104.000648,50.676552 64.664948,75.523949 25.098366,100.517181 
	C41.225185,126.042892 57.203449,151.333466 73.357193,176.901794 
	C83.187920,170.685913 92.791107,164.613907 102.632935,158.391006 
	C96.909721,149.281982 91.449257,140.591141 85.868500,131.708832 
	C90.214554,128.973862 94.278282,126.416565 98.933037,123.434555 
M147.975540,104.471977 
	C148.268143,105.846428 148.217438,107.430733 148.908661,108.561516 
	C153.642029,116.304909 158.530975,123.953201 163.547653,131.914383 
	C133.667770,150.860611 104.153343,169.575119 74.513931,188.368866 
	C85.243492,205.279999 95.617424,221.630600 105.998352,237.992249 
	C145.803650,212.769470 185.044312,187.904480 224.344543,163.001755 
	C208.014999,137.238144 192.032669,112.022377 176.007721,86.739349 
	C166.544769,92.716797 157.559875,98.392265 147.975540,104.471977 
z"/>
<path fill="#030303" opacity="1.000000" stroke="none" 
	d="
M357.407837,54.236919 
	C347.060303,63.179905 336.988922,71.871490 326.374908,81.031380 
	C319.960938,73.068535 313.869659,65.506287 307.445282,57.530525 
	C314.602661,51.816978 321.578461,46.247318 328.555420,40.679066 
	C340.133331,31.438759 351.653748,22.124409 363.351898,13.038897 
	C365.145081,11.646175 367.740295,10.666575 369.997437,10.599305 
	C379.130157,10.327125 388.275696,10.486331 397.735748,10.486331 
	C397.735748,71.496193 397.735748,132.201126 397.735748,193.210144 
	C385.250519,193.210144 372.681396,193.210144 359.855591,193.210144 
	C359.855591,146.285385 359.855591,99.427444 359.855591,52.126472 
	C359.045776,52.819702 358.364868,53.402607 357.407837,54.236919 
z"/>
<path fill="#060606" opacity="1.000000" stroke="none" 
	d="
M407.419006,221.597580 
	C405.467072,215.558792 403.681976,209.881165 401.618683,203.318756 
	C406.280365,203.318756 410.505432,203.093765 414.674805,203.476334 
	C415.722656,203.572464 417.017487,205.470306 417.471802,206.790359 
	C419.881897,213.793625 422.060364,220.876602 424.717194,229.175583 
	C427.344971,221.341370 429.891968,214.718170 431.725525,207.903030 
	C432.759369,204.060242 434.556976,203.087112 438.316254,203.215225 
	C446.567505,203.496429 446.555267,203.296753 449.229584,211.400635 
	C451.136444,217.178864 453.103729,222.937103 455.317657,229.517471 
	C458.026215,221.118500 460.329712,213.666016 462.902008,206.307465 
	C463.325134,205.097015 464.860596,203.550339 465.999146,203.446777 
	C469.898956,203.092087 473.850952,203.310715 478.405396,203.310715 
	C473.081421,219.897079 467.972504,235.813477 462.891205,251.643906 
	C462.419525,251.786530 462.108856,251.956253 461.793823,251.964798 
	C448.924377,252.314072 448.934570,252.308899 444.874756,239.836655 
	C443.446869,235.449890 441.955170,231.083923 440.016449,225.284027 
	C436.827057,234.856247 434.050018,243.190826 431.202118,251.738144 
	C426.691376,251.738144 422.255554,251.738144 417.149689,251.738144 
	C414.034363,242.037903 410.810089,231.998322 407.419006,221.597580 
z"/>
<path fill="#050505" opacity="1.000000" stroke="none" 
	d="
M318.144531,252.006592 
	C315.496124,252.192398 313.968872,252.122772 314.002075,249.033478 
	C314.163116,234.047333 314.074768,219.058533 314.074768,202.812500 
	C324.172668,203.399170 334.105530,203.420837 343.860718,204.748154 
	C349.857758,205.564102 353.687653,210.347382 354.838989,216.383316 
	C356.276978,223.922226 354.719391,230.654678 347.404724,235.607193 
	C350.227936,240.850830 353.020630,246.037796 356.223816,251.987183 
	C351.054626,251.987183 346.360077,252.088028 341.677917,251.892197 
	C340.855835,251.857834 339.836121,250.721924 339.338531,249.849106 
	C337.860077,247.255768 336.350739,244.631714 335.311157,241.848694 
	C334.012421,238.371796 331.927460,237.255157 328.206482,238.633453 
	C328.206482,242.841934 328.206482,247.133133 328.206482,252.006607 
	C324.831970,252.006607 321.726990,252.006607 318.144531,252.006592 
M337.493103,226.455978 
	C341.356750,224.770233 342.212524,221.353149 340.548920,218.238174 
	C337.770691,213.036087 332.601929,215.277695 328.164185,215.075073 
	C328.164185,219.204636 328.164185,222.937653 328.164185,226.733780 
	C331.153412,226.733780 333.922394,226.733780 337.493103,226.455978 
z"/>
<path fill="#060606" opacity="1.000000" stroke="none" 
	d="
M270.562805,204.267151 
	C287.315277,199.520630 300.939423,205.591492 305.578064,219.567596 
	C305.828674,220.322601 305.923065,221.129456 306.240845,222.617645 
	C301.961945,222.617645 298.026245,222.854507 294.149200,222.481552 
	C292.892914,222.360687 291.624542,220.782425 290.646393,219.629333 
	C286.510620,214.753998 278.866791,213.950897 274.041687,217.992859 
	C268.940216,222.266342 268.435852,231.488922 273.029694,236.497620 
	C277.261627,241.111740 285.565369,241.644104 289.457428,236.588120 
	C292.406219,232.757523 295.635010,232.372543 299.657043,232.577881 
	C301.769226,232.685684 303.891479,232.596893 306.043793,232.596893 
	C305.121796,243.403381 296.165192,251.643539 284.499420,252.873230 
	C271.210114,254.274063 260.302704,247.545166 256.888336,235.839752 
	C252.986099,222.461624 257.957428,210.732712 270.562805,204.267151 
z"/>
<path fill="#060606" opacity="1.000000" stroke="none" 
	d="
M395.666565,224.268677 
	C395.670227,227.358307 395.670227,229.985962 395.670227,233.002792 
	C389.633209,233.002792 384.042969,233.002792 378.245422,233.002792 
	C378.245422,235.658249 378.245422,237.905945 378.245422,240.554321 
	C384.846558,240.554321 391.275085,240.554321 397.929016,240.554321 
	C397.929016,244.401550 397.929016,247.856567 397.929016,251.661179 
	C386.879395,251.661179 375.682190,251.661179 364.281921,251.661179 
	C364.281921,235.658035 364.281921,219.750259 364.281921,203.575073 
	C375.249725,203.575073 386.011566,203.575073 397.116211,203.575073 
	C397.116211,207.155991 397.116211,210.723938 397.116211,214.625793 
	C390.904205,214.625793 384.802673,214.625793 378.363617,214.625793 
	C378.363617,217.012421 378.363617,219.086700 378.363617,221.864090 
	C382.748566,221.864090 387.353119,221.726944 391.939697,221.953140 
	C393.208130,222.015686 394.423309,223.159164 395.666565,224.268677 
z"/>
<path fill="#FEFEFE" opacity="1.000000" stroke="none" 
	d="
M98.637527,123.646912 
	C94.278282,126.416565 90.214554,128.973862 85.868500,131.708832 
	C91.449257,140.591141 96.909721,149.281982 102.632935,158.391006 
	C92.791107,164.613907 83.187920,170.685913 73.357193,176.901794 
	C57.203449,151.333466 41.225185,126.042892 25.098366,100.517181 
	C64.664948,75.523949 104.000648,50.676552 143.603226,25.660582 
	C154.114243,42.291981 164.492676,58.713596 175.025101,75.378876 
	C149.501053,91.498497 124.217041,107.466530 98.637527,123.646912 
z"/>
<path fill="#FEFEFE" opacity="1.000000" stroke="none" 
	d="
M148.275253,104.269859 
	C157.559875,98.392265 166.544769,92.716797 176.007721,86.739349 
	C192.032669,112.022377 208.014999,137.238144 224.344543,163.001755 
	C185.044312,187.904480 145.803650,212.769470 105.998352,237.992249 
	C95.617424,221.630600 85.243492,205.279999 74.513931,188.368866 
	C104.153343,169.575119 133.667770,150.860611 163.547653,131.914383 
	C158.530975,123.953201 153.642029,116.304909 148.908661,108.561516 
	C148.217438,107.430733 148.268143,105.846428 148.275253,104.269859 
z"/>
<path fill="#FCFCFC" opacity="1.000000" stroke="none" 
	d="
M337.092224,226.594879 
	C333.922394,226.733780 331.153412,226.733780 328.164185,226.733780 
	C328.164185,222.937653 328.164185,219.204636 328.164185,215.075073 
	C332.601929,215.277695 337.770691,213.036087 340.548920,218.238174 
	C342.212524,221.353149 341.356750,224.770233 337.092224,226.594879 
z"/>
</svg>