<svg xmlns="http://www.w3.org/2000/svg" viewBox="0 0 52 52" id="startup"><path d="M2.671 27.501c1.864-2.283 4.186-4.904 6.902-6.185 2.955-1.394 4.688-.018 7.522.11.445.02.851-.257 1.08-.62 1.274-2.025 2.062-3.9 4.141-5.302 1.154-.778 2.14-1.22 3.127-2.206 3.154-3.146 5.68-5.604 10.055-7.112 2.413-.832 12.082-4.016 13.176-.638.395 1.22-.914 4.581-1.194 5.848-.39 1.766-.807 3.524-1.335 5.254-1.377 4.513-3.481 8.547-7.076 11.683-2.16 1.884-6.058 3.291-7.621 5.695-.795 1.222-.683 2.393-.227 3.709.308.721.692 1.4 1.152 2.034.482 2.28-.113 3.944-1.788 4.994-1.312 1.51-3.404 2.734-4.967 3.989l2.089.551c-.727-3.651-.75-7.028-.068-10.684.186-.993-.563-1.697-1.537-1.537-2.525.412-6.888 1.205-8.737-1.402-1.725-2.433-1.097-4.735-1.256-7.338-.063-1.03.087-1.42-.627-2.121-.86-.844-2.712-.726-3.806-.747-3.294-.062-6.656.309-9.945.469-1.601.078-1.61 2.578 0 2.5 2.364-.115 10.21-1.82 11.66.867.226.421-.137 2.875-.081 3.297a8.399 8.399 0 0 0 .845 2.738c2.498 5.033 7.794 4.935 12.611 4.147l-1.537-1.537c-.758 4.058-.738 7.968.067 12.013.202 1.014 1.423 1.087 2.09.551 2.781-2.233 8.665-5.285 8.119-9.612-.13-1.03-.727-1.487-.973-2.4-.63-2.334-.538-2.954 1.046-4.561 1.834-1.861 4.494-3.002 6.395-4.89 3.839-3.815 5.868-8.82 7.21-13.977.76-2.918 1.35-5.904 1.902-8.868.22-1.188.795-2.773-.085-3.863-2.234-2.764-11.06.016-13.68.7-5.395 1.41-9.227 3.854-13.088 7.755-1.854 1.872-4.247 2.864-5.948 4.875-2.104 2.49-1.76 2.567-5.413 2.223-4.666-.44-9.273 4.53-11.968 7.83-1.009 1.236.75 3.015 1.768 1.768z"></path><path d="M39.837 5.698c.721.59.889 1.515 1.23 2.343.336.816.733 1.577 1.285 2.27 1.12 1.404 2.786 2.311 4.613 2.14 1.589-.15 1.604-2.651 0-2.5-3.625.34-3.271-4.313-5.36-6.02-1.235-1.01-3.014.748-1.768 1.767zM34.826 13.957c1.077-.798 2.63-1.232 3.884-.497 1.362.798 1.47 2.828.557 4.025-.783 1.027-2.6 1.92-3.86 1.222-1.405-.78-2.28-3.69-.811-4.737 1.3-.926.052-3.095-1.262-2.159-2.65 1.888-2.387 5.368-.54 7.786 1.907 2.497 5.294 2.21 7.545.318 2.031-1.707 2.944-5.41 1.002-7.57-1.955-2.174-5.522-2.217-7.777-.546-1.278.947-.033 3.118 1.262 2.158z"></path><path d="M34.223 13.985c1.609 0 1.611-2.5 0-2.5-1.609 0-1.611 2.5 0 2.5zM5.53 48.214c1.086-1.135 1.376-2.445 1.5-3.975.102-1.256.17-2.89 1.009-3.937.844-1.054 2.315-.99 3.413-.461 1.024.492 1.68 1.336 1.975 2.428.378 1.405.052 2.09-1.363 2.51-2.414.72-4.936 1.167-7.431 1.481-1.575.2-1.595 2.702 0 2.5 1.858-.234 3.705-.523 5.535-.93 1.551-.345 3.62-.582 4.857-1.697 1.926-1.737 1.038-5.309-.47-7.032-1.648-1.883-4.63-2.788-6.958-1.657-1.4.68-2.016 2.042-2.526 3.45-.61 1.683-.039 4.225-1.308 5.553-1.112 1.163.653 2.933 1.768 1.767z"></path></svg>