<svg xmlns="http://www.w3.org/2000/svg" viewBox="0 0 52 52" id="user-creativity"><path d="M17.043 23.137c-3.184-6.911-4.347-17.482 5.303-19.723 3.449-.801 9.246-.18 12.104 2.167 3.77 3.095 3.397 9.2 1.914 13.027-1.034 2.668-2.62 4.467-4.199 6.692-1.252 1.765-2.094 5.071-4.005 5.605-.702.196-3.103.328-3.844-.01-3.327-1.518-.875-1.595-2.243-3.33-1.24-1.571-2.793-2.814-3.988-4.498-.924-1.301-3.093-.054-2.159 1.262 1.486 2.094 3.415 3.54 4.244 5.97.32.939.228 1.955 1.096 2.622 1.534 1.178 7.625 1.091 9.244.192 1.676-.931 1.618-2.794 2.467-4.23 1.203-2.039 3.448-3.188 4.46-5.326 1.922-4.06 3.395-8.73 2.23-13.182C38.314 5.208 36.4 3.223 31.308 1.6 27.467.377 22.792.004 19.007 1.73c-3.257 1.486-6.343 6.017-7.028 9.405-.876 4.327 1.13 9.412 2.905 13.264.672 1.46 2.828.191 2.159-1.262z"></path><path d="M35.716 24.406c.388 1.04.87 1.996 1.544 2.879.702.918 1.46 1.61 1.721 2.78.352 1.57 2.762.905 2.411-.665-.503-2.245-2.475-3.542-3.266-5.658-.558-1.494-2.975-.847-2.41.664zM13.285 23.741c-.358.935-1.18 1.702-1.661 2.58-.518.946-.898 1.96-1.16 3.004-.394 1.56 2.017 2.226 2.41.665.277-1.1.687-2.116 1.304-3.072.547-.847 1.153-1.56 1.518-2.512.577-1.503-1.84-2.154-2.41-.665z"></path><path d="M10.276 31.149c.343.997.868 1.263 1.757 1.705.887.441.89.745.99 1.733.07.669.25 1.418.126 2.086-.37 2-3.082 2.022-3.703.222-.594-1.72.14-3.423 1.934-3.814 1.571-.343.907-2.753-.664-2.41-5.364 1.168-5.241 9.983.616 10.057 2.873.037 4.51-2.372 4.304-5.04-.088-1.147-.067-2.564-.538-3.631-.231-.525-.556-.913-1.052-1.197-.177-.1-1.372-.413-1.36-.376-.52-1.512-2.937-.862-2.41.665zM40.138 31.607c.811.392 1.763.719 2.515 1.214.998.657 1.23 1.057 1.176 2.262-.086 1.924-.748 3.198-2.9 3.133-.72-.022-1.672-.053-2.073-.796-.224-.414-.085-1.252-.082-1.687.002-.319-.091-1.584-.034-1.684.283-.5 1.752-.986 2.261-1.24 1.44-.717.176-2.874-1.262-2.158-1.066.53-2.67 1.083-3.223 2.232-.51 1.055-.298 2.772-.245 3.913.132 2.848 2.332 3.929 4.951 3.92 2.944-.008 4.748-1.884 5.05-4.76.124-1.187.28-2.9-.43-3.948-.9-1.332-3.057-1.89-4.443-2.56-1.442-.695-2.712 1.46-1.261 2.16z"></path><path d="M38.711 38.787c-2.346.51-3.885 2.616-5.729 3.992-2.11 1.575-2.491 3.589-2.44 6.118.034 1.606 2.534 1.612 2.5 0-.018-.913-.071-1.878.268-2.743.39-1 1.322-1.451 2.123-2.082 1.274-1.003 2.287-2.514 3.943-2.875 1.571-.341.906-2.752-.665-2.41z"></path><path d="M51.279 50.545c.7-3.185-.87-5.867-2.785-8.304-1.775-2.258-5.283-3.11-8.039-3-1.603.065-1.611 2.565 0 2.5 2.059-.081 4.797.493 6.171 2.149 1.36 1.639 2.726 3.79 2.242 5.99-.344 1.569 2.065 2.239 2.41.665zM21.45 48.735c-.217-5.23-4.424-9.429-9.446-10.017-5.818-.68-9.955 4.462-11.4 9.603-.436 1.55 1.975 2.213 2.41.664 1.11-3.949 4.1-8.194 8.658-7.76 3.637.348 7.118 3.654 7.278 7.51.067 1.603 2.567 1.612 2.5 0z"></path><path d="M20.372 48.184a285.99 285.99 0 0 0-17.918-.235c-1.607.03-1.612 2.53 0 2.5 5.976-.109 11.947-.03 17.918.235 1.608.072 1.605-2.429 0-2.5zM27.174 18.067c-.027-1.084-.112-2.182-.066-3.266.055-1.304.502-1.899 1.777-2.219.443-.111 1.07-.278 1.482.038.532.408.675 1.65.27 2.153-.593.739-2.33.858-3.181 1.017-1.58.295-.91 2.705.665 2.41 2.065-.385 4.656-.945 5.185-3.334.369-1.666-.574-4.28-2.303-4.858-1.64-.549-4.284.344-5.389 1.628-1.462 1.7-.991 4.38-.94 6.43.041 1.607 2.541 1.613 2.5 0z"></path><path d="M25.909 11.169c-1.084-.485-2.927-1.5-4.149-1.098-1.217.4-1.624 2.141-1.765 3.247-.16 1.248-.054 2.842.866 3.808 1.09 1.146 3.004.776 4.425.764 1.608-.014 1.612-2.514 0-2.5-.65.005-1.709.214-2.32.02-.387-.124-.392-.153-.479-.56-.082-.386-.073-.808-.026-1.199.041-.343.125-.679.25-1.002.054-.165.126-.322.218-.471-.857.16-1.06.277-.608.352.273.174.755.206 1.07.31.428.142.845.303 1.256.487 1.456.652 2.73-1.502 1.262-2.158z"></path><path d="M24.732 17.816c1.325 4.09.302 8.944.035 13.164-.102 1.607 2.399 1.6 2.5 0 .283-4.484 1.29-9.463-.125-13.828-.493-1.524-2.908-.872-2.41.664zM49.864 47.969c-2.59.203-5.221.55-7.823.525-3.078-.03-6.074-.674-9.164-.463-1.596.11-1.608 2.61 0 2.5 3.095-.211 6.083.448 9.164.463 2.607.012 5.227-.322 7.823-.525 1.593-.125 1.606-2.626 0-2.5zM31.032 35.12a83.647 83.647 0 0 0-10.077-.192c-1.604.066-1.612 2.567 0 2.5a83.647 83.647 0 0 1 10.077.191c1.604.127 1.595-2.373 0-2.5z"></path><path d="M28.432 37.636c.402-.798.349-1.022-.159-.674a5.95 5.95 0 0 0-.762.432c-.435.27-.832.608-1.29.838-1.297.651-1.432-.292-2.022-1.217-.863-1.352-3.028-.1-2.159 1.262.555.87.845 1.847 1.811 2.375.954.52 2.124.404 3.09-.002 1.044-.44 2.147-1.159 3.076-1.8.819-.564 1.174-1.609.573-2.476-.91-1.314-3.078-.065-2.158 1.262z"></path></svg>